<mxfile host="65bd71144e">
    <diagram id="_NiuC_yrdkO8kt6QhC4k" name="V1">
        <mxGraphModel dx="558" dy="391" grid="1" gridSize="10" guides="1" tooltips="1" connect="1" arrows="1" fold="1" page="1" pageScale="1" pageWidth="850" pageHeight="1100" math="0" shadow="0">
            <root>
                <mxCell id="0"/>
                <mxCell id="1" parent="0"/>
                <mxCell id="-JBojq7FPXSVw2BBmTVK-1" value="" style="group" parent="1" vertex="1" connectable="0">
                    <mxGeometry x="210" y="110" width="550" height="360" as="geometry"/>
                </mxCell>
                <mxCell id="-JBojq7FPXSVw2BBmTVK-2" value="" style="rounded=1;whiteSpace=wrap;html=1;fontSize=14;container=0;" parent="-JBojq7FPXSVw2BBmTVK-1" vertex="1">
                    <mxGeometry y="30" width="550" height="330" as="geometry"/>
                </mxCell>
                <mxCell id="-JBojq7FPXSVw2BBmTVK-3" value="&lt;font style=&quot;font-size: 16px;&quot;&gt;&lt;b&gt;Channel Context&lt;/b&gt;&lt;/font&gt;" style="text;html=1;strokeColor=none;fillColor=none;align=center;verticalAlign=middle;whiteSpace=wrap;rounded=0;fontSize=14;container=0;" parent="-JBojq7FPXSVw2BBmTVK-1" vertex="1">
                    <mxGeometry x="15" y="44" width="200" height="30" as="geometry"/>
                </mxCell>
                <mxCell id="-JBojq7FPXSVw2BBmTVK-4" value="&lt;font color=&quot;#000000&quot;&gt;&lt;b&gt;Channel&lt;/b&gt;&lt;/font&gt;" style="rounded=1;whiteSpace=wrap;html=1;fontSize=16;fontColor=#FFFFFF;" parent="-JBojq7FPXSVw2BBmTVK-1" vertex="1">
                    <mxGeometry x="227.5" y="130" width="130" height="70" as="geometry"/>
                </mxCell>
                <mxCell id="-JBojq7FPXSVw2BBmTVK-5" value="&lt;font color=&quot;#000000&quot;&gt;&lt;b&gt;ChannelStream&lt;/b&gt;&lt;/font&gt;" style="rounded=1;whiteSpace=wrap;html=1;fontSize=16;fontColor=#FFFFFF;" parent="-JBojq7FPXSVw2BBmTVK-1" vertex="1">
                    <mxGeometry x="390" y="130" width="130" height="70" as="geometry"/>
                </mxCell>
                <mxCell id="-JBojq7FPXSVw2BBmTVK-6" style="edgeStyle=none;html=1;strokeColor=default;strokeWidth=3;fontSize=16;fontColor=#000000;endArrow=none;endFill=0;" parent="-JBojq7FPXSVw2BBmTVK-1" source="-JBojq7FPXSVw2BBmTVK-4" target="-JBojq7FPXSVw2BBmTVK-5" edge="1">
                    <mxGeometry relative="1" as="geometry"/>
                </mxCell>
                <mxCell id="-JBojq7FPXSVw2BBmTVK-7" value="&lt;font color=&quot;#000000&quot;&gt;&lt;b&gt;ChannelDescription&lt;/b&gt;&lt;/font&gt;" style="rounded=1;whiteSpace=wrap;html=1;fontSize=16;fontColor=#FFFFFF;" parent="-JBojq7FPXSVw2BBmTVK-1" vertex="1">
                    <mxGeometry x="205" y="240" width="175" height="90" as="geometry"/>
                </mxCell>
                <mxCell id="-JBojq7FPXSVw2BBmTVK-8" style="edgeStyle=none;html=1;strokeColor=default;strokeWidth=3;fontSize=16;fontColor=#000000;endArrow=none;endFill=0;" parent="-JBojq7FPXSVw2BBmTVK-1" source="-JBojq7FPXSVw2BBmTVK-4" target="-JBojq7FPXSVw2BBmTVK-7" edge="1">
                    <mxGeometry relative="1" as="geometry"/>
                </mxCell>
                <mxCell id="-JBojq7FPXSVw2BBmTVK-9" value="&lt;font color=&quot;#000000&quot;&gt;&lt;b&gt;Follower&lt;/b&gt;&lt;/font&gt;" style="rounded=1;whiteSpace=wrap;html=1;fontSize=16;fontColor=#FFFFFF;" parent="-JBojq7FPXSVw2BBmTVK-1" vertex="1">
                    <mxGeometry x="30" y="130" width="130" height="70" as="geometry"/>
                </mxCell>
                <mxCell id="-JBojq7FPXSVw2BBmTVK-10" style="edgeStyle=none;html=1;strokeColor=default;strokeWidth=3;fontSize=16;fontColor=#000000;endArrow=none;endFill=0;" parent="-JBojq7FPXSVw2BBmTVK-1" source="-JBojq7FPXSVw2BBmTVK-4" target="-JBojq7FPXSVw2BBmTVK-9" edge="1">
                    <mxGeometry relative="1" as="geometry"/>
                </mxCell>
                <mxCell id="-JBojq7FPXSVw2BBmTVK-11" value="&lt;font color=&quot;#000000&quot;&gt;&lt;b&gt;Subscriber&lt;/b&gt;&lt;/font&gt;" style="rounded=1;whiteSpace=wrap;html=1;fontSize=16;fontColor=#FFFFFF;" parent="-JBojq7FPXSVw2BBmTVK-1" vertex="1">
                    <mxGeometry x="30" y="250" width="130" height="70" as="geometry"/>
                </mxCell>
                <mxCell id="-JBojq7FPXSVw2BBmTVK-12" style="edgeStyle=none;html=1;strokeColor=default;strokeWidth=3;fontSize=16;fontColor=#000000;endArrow=none;endFill=0;" parent="-JBojq7FPXSVw2BBmTVK-1" source="-JBojq7FPXSVw2BBmTVK-4" target="-JBojq7FPXSVw2BBmTVK-11" edge="1">
                    <mxGeometry relative="1" as="geometry"/>
                </mxCell>
            </root>
        </mxGraphModel>
    </diagram>
    <diagram id="N3MZFxQlsv-xnbAbyV0t" name="event_storming">
        <mxGraphModel dx="2560" dy="2078" grid="1" gridSize="10" guides="1" tooltips="1" connect="1" arrows="1" fold="1" page="1" pageScale="1" pageWidth="850" pageHeight="1100" math="0" shadow="0">
            <root>
                <mxCell id="0"/>
                <mxCell id="1" parent="0"/>
                <mxCell id="lFZYL3ujdIrfbRVy7mhN-54" value="" style="group" parent="1" vertex="1" connectable="0">
                    <mxGeometry x="-70" y="-180" width="780" height="580" as="geometry"/>
                </mxCell>
                <mxCell id="lFZYL3ujdIrfbRVy7mhN-55" value="" style="rounded=1;whiteSpace=wrap;html=1;fontSize=14;" parent="lFZYL3ujdIrfbRVy7mhN-54" vertex="1">
                    <mxGeometry width="780" height="580" as="geometry"/>
                </mxCell>
                <mxCell id="lFZYL3ujdIrfbRVy7mhN-56" value="회원" style="fillColor=#FFC82E;strokeColor=none;fontSize=14;" parent="lFZYL3ujdIrfbRVy7mhN-54" vertex="1">
                    <mxGeometry x="491.25" y="150" width="100" height="100" as="geometry"/>
                </mxCell>
                <mxCell id="lFZYL3ujdIrfbRVy7mhN-57" value="회원" style="fillColor=#FFC82E;strokeColor=none;fontSize=14;" parent="lFZYL3ujdIrfbRVy7mhN-54" vertex="1">
                    <mxGeometry x="120" y="155" width="100" height="100" as="geometry"/>
                </mxCell>
                <mxCell id="lFZYL3ujdIrfbRVy7mhN-58" value="회원 가입" style="fillColor=#1EB5BD;strokeColor=none;fontSize=14;" parent="lFZYL3ujdIrfbRVy7mhN-54" vertex="1">
                    <mxGeometry x="60" y="100" width="90" height="90" as="geometry"/>
                </mxCell>
                <mxCell id="lFZYL3ujdIrfbRVy7mhN-59" value="채널 팔로잉됨" style="fillColor=#FFA12D;strokeColor=none;fontSize=14;" parent="lFZYL3ujdIrfbRVy7mhN-54" vertex="1">
                    <mxGeometry x="561.25" y="90" width="100" height="90" as="geometry"/>
                </mxCell>
                <mxCell id="lFZYL3ujdIrfbRVy7mhN-60" value="채널 팔로잉&#10;취소됨" style="fillColor=#FFA12D;strokeColor=none;fontSize=14;" parent="lFZYL3ujdIrfbRVy7mhN-54" vertex="1">
                    <mxGeometry x="561.25" y="220" width="100" height="90" as="geometry"/>
                </mxCell>
                <mxCell id="lFZYL3ujdIrfbRVy7mhN-61" value="회원가입됨" style="fillColor=#FFA12D;strokeColor=none;fontSize=14;" parent="lFZYL3ujdIrfbRVy7mhN-54" vertex="1">
                    <mxGeometry x="190" y="100" width="100" height="90" as="geometry"/>
                </mxCell>
                <mxCell id="lFZYL3ujdIrfbRVy7mhN-62" value="회원" style="fillColor=#FFC82E;strokeColor=none;fontSize=14;" parent="lFZYL3ujdIrfbRVy7mhN-54" vertex="1">
                    <mxGeometry x="40" y="170" width="60" height="70" as="geometry"/>
                </mxCell>
                <mxCell id="lFZYL3ujdIrfbRVy7mhN-63" value="채널 팔로잉" style="fillColor=#1EB5BD;strokeColor=none;fontSize=14;" parent="lFZYL3ujdIrfbRVy7mhN-54" vertex="1">
                    <mxGeometry x="441.25" y="90" width="90" height="90" as="geometry"/>
                </mxCell>
                <mxCell id="lFZYL3ujdIrfbRVy7mhN-64" value="채널 팔로잉 취소" style="fillColor=#1EB5BD;strokeColor=none;fontSize=14;" parent="lFZYL3ujdIrfbRVy7mhN-54" vertex="1">
                    <mxGeometry x="441.25" y="220" width="90" height="90" as="geometry"/>
                </mxCell>
                <mxCell id="lFZYL3ujdIrfbRVy7mhN-65" value="회원" style="fillColor=#FFC82E;strokeColor=none;fontSize=14;" parent="lFZYL3ujdIrfbRVy7mhN-54" vertex="1">
                    <mxGeometry x="408.75" y="170" width="60" height="70" as="geometry"/>
                </mxCell>
                <mxCell id="lFZYL3ujdIrfbRVy7mhN-66" value="&lt;span style=&quot;color: rgb(0, 0, 0); font-family: Helvetica; font-style: normal; font-variant-ligatures: normal; font-variant-caps: normal; letter-spacing: normal; orphans: 2; text-align: center; text-indent: 0px; text-transform: none; widows: 2; word-spacing: 0px; -webkit-text-stroke-width: 0px; background-color: rgb(251, 251, 251); text-decoration-thickness: initial; text-decoration-style: initial; text-decoration-color: initial; float: none; display: inline !important;&quot;&gt;&lt;font style=&quot;font-size: 16px;&quot;&gt;&lt;b&gt;User Context&lt;/b&gt;&lt;/font&gt;&lt;/span&gt;" style="text;whiteSpace=wrap;html=1;fontSize=14;" parent="lFZYL3ujdIrfbRVy7mhN-54" vertex="1">
                    <mxGeometry x="60" y="10" width="160" height="40" as="geometry"/>
                </mxCell>
                <mxCell id="lFZYL3ujdIrfbRVy7mhN-67" value="팔로워&#10;상태 변경" style="fillColor=#83389B;strokeColor=none;fontSize=14;fontStyle=0;fontColor=#FFFFFF;" parent="lFZYL3ujdIrfbRVy7mhN-54" vertex="1">
                    <mxGeometry x="640" y="155" width="90" height="90" as="geometry"/>
                </mxCell>
                <mxCell id="lFZYL3ujdIrfbRVy7mhN-68" value="회원 생성" style="fillColor=#83389B;strokeColor=none;fontSize=14;fontStyle=0;fontColor=#FFFFFF;" parent="lFZYL3ujdIrfbRVy7mhN-54" vertex="1">
                    <mxGeometry x="260" y="165" width="90" height="90" as="geometry"/>
                </mxCell>
                <mxCell id="lFZYL3ujdIrfbRVy7mhN-69" value="회원" style="fillColor=#FFC82E;strokeColor=none;fontSize=14;" parent="lFZYL3ujdIrfbRVy7mhN-54" vertex="1">
                    <mxGeometry x="120" y="385" width="100" height="100" as="geometry"/>
                </mxCell>
                <mxCell id="lFZYL3ujdIrfbRVy7mhN-70" value="구독" style="fillColor=#1EB5BD;strokeColor=none;fontSize=14;" parent="lFZYL3ujdIrfbRVy7mhN-54" vertex="1">
                    <mxGeometry x="60" y="330" width="90" height="90" as="geometry"/>
                </mxCell>
                <mxCell id="lFZYL3ujdIrfbRVy7mhN-71" value="구독 취소" style="fillColor=#1EB5BD;strokeColor=none;fontSize=14;" parent="lFZYL3ujdIrfbRVy7mhN-54" vertex="1">
                    <mxGeometry x="60" y="460" width="90" height="90" as="geometry"/>
                </mxCell>
                <mxCell id="lFZYL3ujdIrfbRVy7mhN-72" value="회원" style="fillColor=#FFC82E;strokeColor=none;fontSize=14;" parent="lFZYL3ujdIrfbRVy7mhN-54" vertex="1">
                    <mxGeometry x="40" y="400" width="60" height="70" as="geometry"/>
                </mxCell>
                <mxCell id="lFZYL3ujdIrfbRVy7mhN-73" value="구독 갱신" style="fillColor=#FFA12D;strokeColor=none;fontSize=14;" parent="lFZYL3ujdIrfbRVy7mhN-54" vertex="1">
                    <mxGeometry x="210" y="400" width="70" height="70" as="geometry"/>
                </mxCell>
                <mxCell id="lFZYL3ujdIrfbRVy7mhN-74" value="구독" style="fillColor=#FFA12D;strokeColor=none;fontSize=14;" parent="lFZYL3ujdIrfbRVy7mhN-54" vertex="1">
                    <mxGeometry x="210" y="320" width="70" height="70" as="geometry"/>
                </mxCell>
                <mxCell id="lFZYL3ujdIrfbRVy7mhN-75" value="구독 취소" style="fillColor=#FFA12D;strokeColor=none;fontSize=14;" parent="lFZYL3ujdIrfbRVy7mhN-54" vertex="1">
                    <mxGeometry x="210" y="480" width="70" height="70" as="geometry"/>
                </mxCell>
                <mxCell id="lFZYL3ujdIrfbRVy7mhN-76" value="구독 요청" style="fillColor=#83389B;strokeColor=none;fontSize=14;fontStyle=0;fontColor=#FFFFFF;" parent="lFZYL3ujdIrfbRVy7mhN-54" vertex="1">
                    <mxGeometry x="270" y="380" width="90" height="120" as="geometry"/>
                </mxCell>
                <mxCell id="lFZYL3ujdIrfbRVy7mhN-77" value="회원&#10;구족 정보&#10;갱신" style="fillColor=#83389B;strokeColor=none;fontSize=14;fontStyle=0;fontColor=#FFFFFF;" parent="lFZYL3ujdIrfbRVy7mhN-54" vertex="1">
                    <mxGeometry x="468.75" y="390" width="90" height="90" as="geometry"/>
                </mxCell>
            </root>
        </mxGraphModel>
    </diagram>
    <diagram id="rrRWOHWCN6pNSkYYTB03" name="context_map">
        <mxGraphModel dx="634" dy="1127" grid="1" gridSize="10" guides="1" tooltips="1" connect="1" arrows="1" fold="1" page="1" pageScale="1" pageWidth="850" pageHeight="1100" math="0" shadow="0">
            <root>
                <mxCell id="0"/>
                <mxCell id="1" parent="0"/>
                <mxCell id="gNjFS6LlMgLeSip9vDzk-10" value="" style="group" parent="1" vertex="1" connectable="0">
                    <mxGeometry x="170" y="-155" width="540" height="340" as="geometry"/>
                </mxCell>
                <mxCell id="gNjFS6LlMgLeSip9vDzk-11" value="" style="group" parent="gNjFS6LlMgLeSip9vDzk-10" vertex="1" connectable="0">
                    <mxGeometry width="540" height="335" as="geometry"/>
                </mxCell>
                <mxCell id="gNjFS6LlMgLeSip9vDzk-12" value="" style="rounded=1;whiteSpace=wrap;html=1;fontSize=14;container=0;" parent="gNjFS6LlMgLeSip9vDzk-11" vertex="1">
                    <mxGeometry width="520" height="310" as="geometry"/>
                </mxCell>
                <mxCell id="gNjFS6LlMgLeSip9vDzk-13" value="&lt;span style=&quot;color: rgb(0, 0, 0); font-family: Helvetica; font-style: normal; font-variant-ligatures: normal; font-variant-caps: normal; letter-spacing: normal; orphans: 2; text-align: center; text-indent: 0px; text-transform: none; widows: 2; word-spacing: 0px; -webkit-text-stroke-width: 0px; background-color: rgb(251, 251, 251); text-decoration-thickness: initial; text-decoration-style: initial; text-decoration-color: initial; float: none; display: inline !important;&quot;&gt;&lt;font style=&quot;font-size: 16px;&quot;&gt;&lt;b&gt;User Context&lt;/b&gt;&lt;/font&gt;&lt;/span&gt;" style="text;whiteSpace=wrap;html=1;fontSize=14;container=0;" parent="gNjFS6LlMgLeSip9vDzk-11" vertex="1">
                    <mxGeometry x="60" y="10" width="160" height="40" as="geometry"/>
                </mxCell>
                <mxCell id="gNjFS6LlMgLeSip9vDzk-14" value="&lt;font color=&quot;#000000&quot;&gt;&lt;b&gt;User&lt;/b&gt;&lt;/font&gt;" style="rounded=1;whiteSpace=wrap;html=1;fontSize=16;fontColor=#FFFFFF;" parent="gNjFS6LlMgLeSip9vDzk-11" vertex="1">
                    <mxGeometry x="185" y="55" width="130" height="70" as="geometry"/>
                </mxCell>
                <mxCell id="gNjFS6LlMgLeSip9vDzk-15" style="edgeStyle=none;html=1;strokeColor=default;strokeWidth=3;fontSize=16;fontColor=#000000;endArrow=none;endFill=0;" parent="gNjFS6LlMgLeSip9vDzk-11" source="gNjFS6LlMgLeSip9vDzk-16" target="gNjFS6LlMgLeSip9vDzk-14" edge="1">
                    <mxGeometry relative="1" as="geometry"/>
                </mxCell>
                <mxCell id="gNjFS6LlMgLeSip9vDzk-16" value="&lt;font color=&quot;#000000&quot;&gt;&lt;b&gt;SubscribeChannel&lt;/b&gt;&lt;/font&gt;" style="rounded=1;whiteSpace=wrap;html=1;fontSize=16;fontColor=#FFFFFF;" parent="gNjFS6LlMgLeSip9vDzk-11" vertex="1">
                    <mxGeometry x="25" y="155" width="150" height="90" as="geometry"/>
                </mxCell>
                <mxCell id="gNjFS6LlMgLeSip9vDzk-17" style="edgeStyle=none;html=1;strokeColor=default;strokeWidth=3;fontSize=16;fontColor=#000000;endArrow=none;endFill=0;" parent="gNjFS6LlMgLeSip9vDzk-11" source="gNjFS6LlMgLeSip9vDzk-18" target="gNjFS6LlMgLeSip9vDzk-14" edge="1">
                    <mxGeometry relative="1" as="geometry"/>
                </mxCell>
                <mxCell id="gNjFS6LlMgLeSip9vDzk-18" value="&lt;b style=&quot;border-color: var(--border-color); color: rgb(0, 0, 0);&quot;&gt;FolloweeChannel&lt;/b&gt;" style="rounded=1;whiteSpace=wrap;html=1;fontSize=16;fontColor=#FFFFFF;" parent="gNjFS6LlMgLeSip9vDzk-11" vertex="1">
                    <mxGeometry x="345" y="155" width="150" height="90" as="geometry"/>
                </mxCell>
            </root>
        </mxGraphModel>
    </diagram>
</mxfile>